<svg id="Layer_1" data-name="Layer 1" xmlns="http://www.w3.org/2000/svg" viewBox="0 0 341.76 303.76"><defs><style>.cls-1{fill:#2f0032;}.cls-2{fill:#311543;}.cls-3{fill:#322a54;}.cls-4{fill:#343f65;}.cls-5{fill:#355476;}.cls-6{fill:#376987;}.cls-7{fill:#397e99;}.cls-8{fill:#3a93aa;}.cls-9{fill:#3ca8bb;}.cls-10{fill:#3dbdcc;}.cls-11{fill:#3fd2dd;}.cls-12{fill:#40e7ee;}.cls-13{fill:#42fcff;}</style></defs><polygon class="cls-1" points="184.37 0 0 288.19 341.76 303.76 184.37 0"/><polygon class="cls-2" points="185.44 11.26 9.72 279.27 329.69 297.44 185.44 11.26"/><polygon class="cls-3" points="186.52 22.51 19.44 270.35 317.62 291.12 186.52 22.51"/><polygon class="cls-4" points="187.59 33.77 29.16 261.44 305.55 284.81 187.59 33.77"/><polygon class="cls-5" points="188.67 45.02 38.88 252.52 293.47 278.49 188.67 45.02"/><polygon class="cls-6" points="189.74 56.28 48.6 243.6 281.4 272.17 189.74 56.28"/><polygon class="cls-7" points="190.82 67.53 58.33 234.69 269.33 265.85 190.82 67.53"/><polygon class="cls-8" points="191.89 78.79 68.05 225.77 257.26 259.53 191.89 78.79"/><polygon class="cls-9" points="192.97 90.04 77.77 216.85 245.19 253.21 192.97 90.04"/><polygon class="cls-10" points="194.04 101.3 87.49 207.94 233.12 246.89 194.04 101.3"/><polygon class="cls-11" points="195.11 112.55 97.21 199.02 221.04 240.57 195.11 112.55"/><polygon class="cls-12" points="196.19 123.81 106.93 190.1 208.97 234.26 196.19 123.81"/><polygon class="cls-13" points="197.26 135.06 116.65 181.19 196.9 227.94 197.26 135.06"/></svg>