<svg xmlns="http://www.w3.org/2000/svg" xmlns:xlink="http://www.w3.org/1999/xlink" viewBox="0 0 2880.37 1440"><defs><style>.cls-1{fill:url(#New_Gradient_Swatch_1);}.cls-10,.cls-11,.cls-12,.cls-13,.cls-14,.cls-15,.cls-16,.cls-17,.cls-18,.cls-19,.cls-2,.cls-20,.cls-21,.cls-22,.cls-23,.cls-24,.cls-25,.cls-3,.cls-4,.cls-5,.cls-6,.cls-7,.cls-8,.cls-9{fill:none;}.cls-2{stroke:#ed4aff;}.cls-10,.cls-11,.cls-12,.cls-13,.cls-14,.cls-15,.cls-16,.cls-17,.cls-18,.cls-19,.cls-2,.cls-20,.cls-21,.cls-22,.cls-23,.cls-24,.cls-25,.cls-4,.cls-5,.cls-6,.cls-7,.cls-8,.cls-9{stroke-miterlimit:10;stroke-width:0.9px;}.cls-3{stroke:#e74afb;stroke-miterlimit:10;stroke-width:0.9px;}.cls-4{stroke:#e04bf7;}.cls-5{stroke:#da4bf3;}.cls-6{stroke:#d44bef;}.cls-7{stroke:#ce4ceb;}.cls-8{stroke:#c74ce7;}.cls-9{stroke:#c14ce3;}.cls-10{stroke:#bb4ddf;}.cls-11{stroke:#b54ddb;}.cls-12{stroke:#ae4dd7;}.cls-13{stroke:#a84ed3;}.cls-14{stroke:#a24ecf;}.cls-15{stroke:#9c4fcb;}.cls-16{stroke:#954fc7;}.cls-17{stroke:#8f4fc3;}.cls-18{stroke:#8950bf;}.cls-19{stroke:#8350bb;}.cls-20{stroke:#7c50b7;}.cls-21{stroke:#7651b3;}.cls-22{stroke:#7051af;}.cls-23{stroke:#6a51ab;}.cls-24{stroke:#6352a7;}.cls-25{stroke:#5d52a3;}.cls-26{fill:url(#linear-gradient);}</style><radialGradient id="New_Gradient_Swatch_1" cx="1440.27" cy="720" r="1138.42" gradientUnits="userSpaceOnUse"><stop offset="0" stop-color="#300c2f"/><stop offset="0.28" stop-color="#200521"/><stop offset="0.6" stop-color="#160118"/><stop offset="1" stop-color="#130015"/></radialGradient><linearGradient id="linear-gradient" x1="1970.83" y1="526.25" x2="2068.71" y2="582.75" gradientUnits="userSpaceOnUse"><stop offset="0.03" stop-color="aqua"/><stop offset="0.05" stop-color="#03f1f4"/><stop offset="0.15" stop-color="#0ebecc"/><stop offset="0.25" stop-color="#1892a9"/><stop offset="0.36" stop-color="#206c8b"/><stop offset="0.47" stop-color="#274d73"/><stop offset="0.58" stop-color="#2c3561"/><stop offset="0.7" stop-color="#302453"/><stop offset="0.84" stop-color="#321a4c"/><stop offset="1" stop-color="#331749"/></linearGradient></defs><g id="Layer_6" data-name="Layer 6"><rect class="cls-1" x="0.27" width="2880" height="1440"/></g><g id="Layer_3" data-name="Layer 3"><path class="cls-2" d="M-.5,596c598-448.53,1128.88,310.48,1624,216.69S2147.91,185,2415.66,300.46,2878.75,596,2878.75,596" transform="translate(0.77 -0.5)"/><path class="cls-3" d="M-.47,618.35C587.7,182.86,1109.68,905.26,1594.7,823.13s536.63-616.07,798.73-500,485.35,280.2,485.35,280.2" transform="translate(0.77 -0.5)"/><path class="cls-4" d="M-.43,640.67C577.92,218.22,1091,904,1565.92,833.55S2114.74,229.1,2371.2,345.71s507.62,264.84,507.62,264.84" transform="translate(0.77 -0.5)"/><path class="cls-5" d="M-.4,663C568.15,253.58,1072.29,902.75,1537.14,844s561-592.83,811.82-475.62,529.89,249.47,529.89,249.47" transform="translate(0.77 -0.5)"/><path class="cls-6" d="M-.37,685.31c558.74-396.37,1054,216.18,1508.73,169.07S2081.58,273.17,2326.73,391s552.15,234.11,552.15,234.11" transform="translate(0.77 -0.5)"/><path class="cls-7" d="M-.34,707.63C548.59,324.3,1034.89,900.24,1479.58,864.79S2065,295.21,2304.5,413.59s574.41,218.74,574.41,218.74" transform="translate(0.77 -0.5)"/><path class="cls-8" d="M-.3,730C538.81,359.66,1016.19,899,1450.8,875.21s597.62-558,831.46-439S2879,639.58,2879,639.58" transform="translate(0.77 -0.5)"/><path class="cls-9" d="M-.27,752.27C529,395,997.49,897.73,1422,885.62s609.81-546.34,838-426.78,618.95,188,618.95,188" transform="translate(0.77 -0.5)"/><path class="cls-10" d="M-.24,774.59C519.25,430.38,978.79,896.47,1393.25,896s622-534.72,844.55-414.58S2879,654.1,2879,654.1" transform="translate(0.77 -0.5)"/><path class="cls-11" d="M-.21,796.91C509.47,465.73,960.1,895.22,1364.47,906.45s634.21-523.1,851.1-402.36S2879,661.36,2879,661.36" transform="translate(0.77 -0.5)"/><path class="cls-12" d="M-.17,819.23C499.69,501.09,941.4,894,1335.69,916.86s646.41-511.47,857.64-390.15,685.75,141.91,685.75,141.91" transform="translate(0.77 -0.5)"/><path class="cls-13" d="M-.14,841.55c490.05-305.1,922.84,51.16,1307.05,85.73s658.6-499.85,864.19-377.94,708,126.54,708,126.54" transform="translate(0.77 -0.5)"/><path class="cls-14" d="M-.11,863.87C480.13,571.81,904,891.46,1278.13,937.69S1948.93,449.47,2148.87,572s730.27,111.18,730.27,111.18" transform="translate(0.77 -0.5)"/><path class="cls-15" d="M-.08,886.19c470.43-279,885.38,4,1249.43,61.92s683-476.61,877.29-353.52,752.53,95.8,752.53,95.8" transform="translate(0.77 -0.5)"/><path class="cls-16" d="M0,908.51c460.61-266,866.64-19.56,1220.61,50s695.2-465,883.83-341.31,774.81,80.44,774.81,80.44" transform="translate(0.77 -0.5)"/><path class="cls-17" d="M0,930.83c450.8-252.94,847.92-43.14,1191.8,38.11s707.4-453.36,890.38-329.1,797.07,65.07,797.07,65.07" transform="translate(0.77 -0.5)"/><path class="cls-18" d="M0,953.15c441-239.9,829.19-66.71,1163,26.2s719.6-441.74,896.93-316.89,819.33,49.71,819.33,49.71" transform="translate(0.77 -0.5)"/><path class="cls-19" d="M.05,975.47c431.18-226.86,810.46-90.29,1134.18,14.3S1866,559.65,2037.71,685.09s841.59,34.34,841.59,34.34" transform="translate(0.77 -0.5)"/><path class="cls-20" d="M.09,997.79C421.45,784,791.81,883.93,1105.45,1000.18s744-418.49,910-292.47,863.87,19,863.87,19" transform="translate(0.77 -0.5)"/><path class="cls-21" d="M.12,1020.11c411.55-200.79,773-137.44,1076.55-9.51s756.19-406.87,916.57-280.26,886.13,3.6,886.13,3.6" transform="translate(0.77 -0.5)"/><path class="cls-22" d="M.15,1042.43c401.74-187.75,754.26-161,1047.74-21.42S1816.28,625.76,1971,753,2879.4,741.2,2879.4,741.2" transform="translate(0.77 -0.5)"/><path class="cls-23" d="M.18,1064.75C392.11,890,735.72,880.16,1019.11,1031.42S1799.7,647.8,1948.78,775.59s930.65-27.13,930.65-27.13" transform="translate(0.77 -0.5)"/><path class="cls-24" d="M.22,1087.07C382.33,925.4,717,878.91,990.34,1041.84s792.78-372,936.2-243.63,952.93-42.49,952.93-42.49" transform="translate(0.77 -0.5)"/><path class="cls-25" d="M.25,1109.39c372.31-148.63,698.07-231.74,961.31-57.14s805-360.38,942.75-231.41S2879.5,763,2879.5,763" transform="translate(0.77 -0.5)"/></g><g id="Layer_5" data-name="Layer 5"><circle class="cls-26" cx="2019.77" cy="554.5" r="56.5"/></g></svg>