<svg xmlns="http://www.w3.org/2000/svg" xmlns:xlink="http://www.w3.org/1999/xlink" viewBox="0 0 2880.68 1440"><defs><style>.cls-1{fill:#070519;}.cls-10,.cls-11,.cls-12,.cls-13,.cls-14,.cls-15,.cls-16,.cls-2,.cls-3,.cls-4,.cls-5,.cls-6,.cls-7,.cls-8,.cls-9{fill:none;stroke-miterlimit:10;}.cls-2{stroke:#3fa9f5;}.cls-3{stroke:#459def;}.cls-4{stroke:#4b91e9;}.cls-5{stroke:#5185e3;}.cls-6{stroke:#5779dd;}.cls-7{stroke:#5d6dd7;}.cls-8{stroke:#6361d1;}.cls-9{stroke:#6955cc;}.cls-10{stroke:#6f48c6;}.cls-11{stroke:#753cc0;}.cls-12{stroke:#7b30ba;}.cls-13{stroke:#8124b4;}.cls-14{stroke:#8718ae;}.cls-15{stroke:#8d0ca8;}.cls-16{stroke:#9300a2;}.cls-17{fill:url(#radial-gradient);}.cls-18{fill:url(#radial-gradient-2);}</style><radialGradient id="radial-gradient" cx="2202.37" cy="929.98" r="448.79" gradientUnits="userSpaceOnUse"><stop offset="0.11" stop-color="#c1ff88"/><stop offset="0.14" stop-color="#b0e87e"/><stop offset="0.19" stop-color="#8eb969"/><stop offset="0.26" stop-color="#708e56"/><stop offset="0.32" stop-color="#556945"/><stop offset="0.39" stop-color="#3f4a38"/><stop offset="0.47" stop-color="#2c312c"/><stop offset="0.55" stop-color="#1e1d24"/><stop offset="0.65" stop-color="#140f1e"/><stop offset="0.78" stop-color="#0f071a"/><stop offset="1" stop-color="#0d0519"/></radialGradient><radialGradient id="radial-gradient-2" cx="1709.26" cy="1175.13" r="690.18" gradientUnits="userSpaceOnUse"><stop offset="0" stop-color="#191327"/><stop offset="0.44" stop-color="#1b1527"/><stop offset="0.6" stop-color="#221b28"/><stop offset="0.71" stop-color="#2d2529"/><stop offset="0.8" stop-color="#3e342b"/><stop offset="0.88" stop-color="#54472d"/><stop offset="0.94" stop-color="#6f5e30"/><stop offset="1" stop-color="#8b7733"/></radialGradient></defs><g id="Layer_1" data-name="Layer 1"><rect class="cls-1" x="0.93" y="0.5" width="2879" height="1439"/><path d="M2879,1V1439H1V1H2879m1-1H0V1440H2880V0Z" transform="translate(0.43)"/></g><g id="Layer_2" data-name="Layer 2"><path class="cls-2" d="M0,654.58S260.5,214.5,449.5,302.5s469,528,677,485,304-363,433-377,619,484,767,409,233-321,354-225,80,178.4,199.5,232.7" transform="translate(0.43)"/><path class="cls-3" d="M0,670.36S296.23,229.15,483.4,320.82s469.39,515.68,674.17,474C1356.42,754,1453.51,452.53,1580.64,433c79-12.15,275.36,141.65,450.94,260.39,121,81.75,234.07,145,293.84,118.43,144.49-64.23,228-289.89,346.15-204.22C2791,694.24,2769,760.58,2880,811" transform="translate(0.43)"/><path class="cls-4" d="M0,686.13s332-442.34,517.3-347S987.07,842.5,1188.64,802.07c189.69-38.6,287.93-321.84,413.14-346.62,81.64-16.16,270.92,120,438.33,231.92,115.82,77.27,224.85,139.31,284.22,116.72,140.76-53.57,223.27-258.81,338.31-183.45C2780.75,698,2777.57,748.26,2880,794.8" transform="translate(0.43)"/><path class="cls-5" d="M0,701.9S367.68,258.44,551.2,357.47s470.24,491.44,668.51,451.89c180.61-36,279.94-301.75,403.21-331.44,84.28-20.3,266.48,98.28,425.73,203.46,110.62,72.8,215.53,133.59,274.6,115,136.79-43,218.67-227.76,330.46-162.67,116.94,68.1,132.4,102.23,226.29,144.89" transform="translate(0.43)"/><path class="cls-6" d="M0,717.68S403.4,273.09,585.1,375.79,1055.75,855,1250.79,816.64c171.47-33.74,271.92-281.92,393.27-316.24,86.93-24.59,262,76.59,413.12,175,105.43,68.33,206.1,127.81,265,113.28,132.58-32.71,214.29-196.8,322.62-141.88,116,58.79,149.85,76.83,235.21,115.61" transform="translate(0.43)"/><path class="cls-7" d="M0,733.45S439.13,287.74,619,394.12s471.06,467,662.87,429.81c162.32-31.48,263.88-262.35,383.34-301.06,89.56-29,257.6,54.91,400.51,146.53,100.23,63.85,196.58,122,255.38,111.57,128.15-22.65,210.13-166,314.77-121.11,115.28,49.43,167.32,51.44,244.14,86.35" transform="translate(0.43)"/><path class="cls-8" d="M0,749.23S474.86,302.38,652.89,412.44s471.46,454.77,660,418.77c153.18-29.24,255.79-243,373.41-285.87,92.17-33.6,253.16,33.23,387.9,118.07,95,59.38,187,116,245.76,109.85,123.55-12.9,206.23-135.35,306.93-100.33C2741.77,712.86,2811.71,699,2880,730" transform="translate(0.43)"/><path class="cls-9" d="M0,765S510.58,317,686.79,430.77,1158.64,873.27,1344,838.5c144-27,247.63-223.81,363.48-270.68,94.72-38.33,248.56,11.8,375.29,89.6,89.73,55.09,178,117.2,236.15,108.13,117.43-18.3,202.55-105,299.08-79.55,114.65,30.21,202.25.66,262,27.81" transform="translate(0.43)"/><path class="cls-10" d="M0,780.77S546.31,331.68,720.69,449.09s472.24,430.22,654.38,396.7C1509.94,821,1614.47,641,1728.62,590.29c97.2-43.18,244.12-9.87,362.69,61.15,84.52,50.62,167.7,111.08,226.53,106.41,113.76-9,199-75,291.23-58.78,114.66,20.15,219.72-24.73,270.93-1.46" transform="translate(0.43)"/><path class="cls-11" d="M0,796.55S582,346.33,754.59,467.41s472.63,417.91,651.55,385.66c125.71-22.65,231.08-185.88,343.62-240.31,99.61-48.17,239.68-31.55,350.08,32.69,79.33,46.15,157.89,97.08,216.92,104.69,109.21,14.09,195.66-45.34,283.38-38C2715,721.76,2837.32,662,2880,681.41" transform="translate(0.43)"/><path class="cls-12" d="M0,812.32S617.76,361,788.49,485.74s473,405.54,648.72,374.62c116.54-20.51,222.68-167.09,333.7-225.12,101.92-53.28,235.24-53.25,337.46,4.22,74.14,41.67,148.27,90.36,207.3,103,104.56,22.33,193.29-4.27,275.54-17.23,113.59-17.89,254.65-75.51,288.79-60" transform="translate(0.43)"/><path class="cls-13" d="M0,828.1s653.49-452.48,822.39-324,473.37,393.14,645.9,363.58c107.36-18.39,214.19-148.38,323.76-209.93,104.15-58.51,230.82-75,324.85-24.24,69,37.18,138.77,83.44,197.69,101.26,100.12,30.28,188.77,12.65,267.7,3.56C2697.25,725,2854.39,637.38,2880,649" transform="translate(0.43)"/><path class="cls-14" d="M0,843.87s689.21-453.6,856.29-321.49S1330,903.06,1499.36,874.93c98.19-16.31,205.61-129.74,313.83-194.74,106.28-63.84,226.41-96.69,312.25-52.71,63.78,32.68,129.43,76.32,188.07,99.54,96,38,185,41.1,259.85,24.34,114.57-25.66,289.57-126.3,306.64-118.55" transform="translate(0.43)"/><path class="cls-15" d="M0,859.64S724.94,404.92,890.18,540.71s474.09,368.13,640.25,341.5c89-14.26,196.94-111.15,303.9-179.55,108.3-69.27,222.07-118.57,299.64-81.17,58.65,28.06,120.3,69.06,178.46,97.83,92.14,45.58,180.81,69.32,252,45.11,113.63-38.64,307-151.69,315.57-147.81" transform="translate(0.43)"/><path class="cls-16" d="M0,875.42S760.67,419.56,924.08,559,1398.5,914.5,1561.5,889.5s445-334,581-274,301,214,413,162S2880,600.42,2880,600.42" transform="translate(0.43)"/></g><g id="Layer_3" data-name="Layer 3"><circle class="cls-17" cx="2019.43" cy="1056" r="177"/></g><g id="Layer_5" data-name="Layer 5"><path class="cls-18" d="M2239,1049c-17.51,12.06-32.07,22-44.52,30.29C2143,1113.7,2127.66,1120.86,2089,1141c-17.5,9.11-101.65,44.55-159.61,67.67-26.75,10.67-47.92,18.71-54.39,20.33-20,5-68,20-93,17-19.88-2.39-25-11-14-29s38-38,47-46c7.46-6.63,37.56-25.61,47.67-31.92a174.49,174.49,0,0,0,9.67,16c-8,5.48-42.22,29.75-41.34,43.88.4,6.44,1,22,76,0q2.71-.8,5.47-1.64c65.24-19.91,150.58-59.09,163.53-66.36,55-30.86,93.82-55.72,120-75.56,32.37-24.52,45.45-41.38,46-52.44.79-15.79-35-10-35-10l-20.4,6a175.82,175.82,0,0,0-8-19.5c27.74-8,113.62-31.43,127.7-18.57C2324,977,2275.58,1023.8,2239,1049Z" transform="translate(0.43)"/></g></svg>