<svg id="Layer_2" data-name="Layer 2" xmlns="http://www.w3.org/2000/svg" xmlns:xlink="http://www.w3.org/1999/xlink" viewBox="0 0 2880.22 1440"><defs><style>.cls-1{fill:url(#linear-gradient);}.cls-2{fill:url(#linear-gradient-2);}.cls-3{fill:url(#linear-gradient-3);}.cls-4{fill:url(#linear-gradient-4);}.cls-5{fill:url(#linear-gradient-5);}.cls-6{fill:url(#linear-gradient-6);}.cls-7{fill:url(#linear-gradient-7);}.cls-8{fill:url(#linear-gradient-8);}.cls-9{fill:none;}</style><linearGradient id="linear-gradient" x1="2415.19" y1="1004.27" x2="1899.81" y2="706.73" gradientUnits="userSpaceOnUse"><stop offset="0" stop-color="#160616"/><stop offset="0.26" stop-color="#1a061f"/><stop offset="0.68" stop-color="#250636"/><stop offset="1" stop-color="#30064c"/></linearGradient><linearGradient id="linear-gradient-2" x1="1722.82" y1="1049.51" x2="1722.82" y2="864.05" gradientUnits="userSpaceOnUse"><stop offset="0" stop-color="#3d0048"/><stop offset="0.99" stop-color="#1f002b"/></linearGradient><linearGradient id="linear-gradient-3" x1="1440" y1="1288.5" x2="1440" y2="907.7" xlink:href="#linear-gradient-2"/><linearGradient id="linear-gradient-4" x1="2305" y1="1395.72" x2="2305" y2="1080.15" xlink:href="#linear-gradient-2"/><linearGradient id="linear-gradient-5" x1="1440" y1="1440" x2="1440" y2="1080.15" xlink:href="#linear-gradient-2"/><linearGradient id="linear-gradient-6" x1="993.5" y1="1440" x2="993.5" y2="1318.65" xlink:href="#linear-gradient-2"/><linearGradient id="linear-gradient-7" x1="874.77" y1="1202.7" x2="0" y2="1202.7" gradientUnits="userSpaceOnUse"><stop offset="0" stop-color="#570056"/><stop offset="0.99" stop-color="#1f002b"/></linearGradient><linearGradient id="linear-gradient-8" x1="851.08" y1="1380.85" y2="1380.85" xlink:href="#linear-gradient-7"/></defs><circle class="cls-1" cx="2157.5" cy="855.5" r="297.5"/><path class="cls-2" d="M565.43,933.83S1340.5,874.5,1487.5,865.5s812.83,40.33,925.41,34.17S2879.5,860.3,2880,864.4s0,185.11,0,185.11L565.43,1037.26Z"/><path class="cls-3" d="M0,911.64s339.55-8.86,409.32,0,653.61,72.86,739,63.86,557,10,642.42,16c56.66,4,569-17.66,678.18-3,134,18,352.53-49.13,411.07-3v303L0,1236.4Z"/><path class="cls-4" d="M2880,1080.15S2526,1138,2321,1169s-465,99-591,99v115.47l1150,12.25Z"/><path class="cls-5" d="M2880,1285.43V1440H0V1080.15s69.44,27.68,155,36.85c74.89,8,162.63,14.37,251.9,18,18.15.75,36.37,1.38,54.55,1.9,159.85,4.51,317.2-.21,407.29-19.93a23.83,23.83,0,0,1,4-.4c64.62-2.17,644.8,109.08,973.29,135.4C2183,1279,2880,1279.85,2880,1285.43Z"/><path class="cls-6" d="M1987,1440H0v-74.91s32.93-.69,85.78-2c132.27-3.29,389.27-10.58,566.64-21.16,48.88-2.91,91.72-6.07,124.23-9.47l.38,0c31.08-3.26,52.66-6.73,61-10.41C899,1295,1987,1440,1987,1440Z"/><path class="cls-7" d="M832,1187c-49,25-365,76-478,92S0,1325.26,0,1325.26V1080.15s69.44,27.68,155,36.85c74.89,8,162.63,14.37,251.9,18,18.5,1,36.76,1.64,54.55,1.9,159.85,4.51,317.2-.21,407.29-19.93a23.83,23.83,0,0,1,4-.4.89.89,0,0,1,.29.4C876,1126,881,1162,832,1187Z"/><path class="cls-8" d="M829,1364c-55.42,34.52-168.6,76-168.6,76H0v-71.85s34.57-2.13,85.78-5.07c132.27-3.29,389.27-10.58,566.64-21.16,45-2.29,89.06-5.48,124.23-9.47l.38,0c26.58-3,48.06-6.51,61-10.41C848.36,1318.87,865.21,1341.45,829,1364Z"/><line class="cls-9" x2="2880"/></svg>