<svg id="Layer_2" data-name="Layer 2" xmlns="http://www.w3.org/2000/svg" viewBox="0 0 527.16 531.87"><path d="M616.5,394.71A128.16,128.16,0,0,1,604,438c-11,22-25.06,47.12-25.06,47.12S546,437,527,416s-46-33-59-41c-9.39-5.78-33.4-14.17-46-18.38,33.91,14.44,86.3,74.32,102,109.86C541,505,548,540,543,544s-42,37-87,57-100.83,17.68-127,15c-39-4-55-15-99-39-24-13.07-64-61.55-74-79-23-40-29-87-29-87s30,46,60,74a372.61,372.61,0,0,0,66,49s88,48.33,135-1c40-42,21.83-71,15-100-4-17-39.57-56.78-61-68-21-11-39-17-60-18-16-.76-42.69,5.59-48,8-11,5-18.51,10.68-28,17-9,6-11,9-12,13s-1,11,3,15l7,7s-11.32-2.32-17-6c-14.36-9.3-19-19-19-19s-4.86-10.88-4-22c1-13,4-19,9-29,4.6-9.21,15-20,20-27-4-4-7-12-5-17s43-44,57-57,68-46,107.92-57.06S456,154,442,160c-13.78,5.91-37.31,26.35-38,27,.74-.16,18.86-4,52,0,25,3,68,28,68,28l-89-10-79.17,7.49S382.12,191,378,191c-18,0-64,17-84,29-13.36,8-29,19-49,31-6.06,3.64-15,16-37,36,0,0-2.55,13.16,7.23,17.58,0,0,13.77,2.42,23.77-6.58s16-9,26-20,53-33,53-33l-7,9s4,13,3,19-12,8-12,8-16,26-3,15,112-7,157,4,76,34,97,44S616.5,394.71,616.5,394.71Z" transform="translate(-89.34 -85.88)"/><path d="M352.56,371.45" transform="translate(-89.34 -85.88)"/><path d="M138,490a667.3,667.3,0,0,0,51.48,66.48c-.93-.73-30.84-24.43-48-49-18.5-26.5-34.9-54.15-47-103C81,350,96,270,116.5,231.5c28.08-52.73,68-87,89-100S273.06,89.37,364,86c81-3,152.48,50.93,195.5,99.5,46.5,52.5,57,132,57,132A632.35,632.35,0,0,0,539,268c-27.62-14.77-67-22-110.5-32.5-37.66-9.1-65.07-5.06-68.2-4.55,4.55-.94,59.66-12.13,79.2-12.45,30.5-.5,49,1,84,10C558,237.36,570.6,243.8,571,244c-.15-.27-3.1-5.22-37.49-43.49C506.07,170,451,130,360,125c-46.94-2.58-127,20.77-172.5,64.5C137,238,112.32,302.81,108.77,359.61,106,404,127.5,474.5,138,490Z" transform="translate(-89.34 -85.88)"/></svg>